# xmcd CD database file
#
# Track frame offsets:
#	150
#	31177
#	68157
#	110055
#	140240
#	185467
#	206802
#
# Disc length: 3346 seconds
#
# Revision: 0
# Processed by: cddbd v1.5.1PL2 Copyright (c) Steve Scherf et al.
# Submitted via: CDex 1.50
#
DISCID=6b0d1007
DTITLE=David Costa - Concepção Natural
DYEAR=2005
DGENRE=Jazz
TTITLE0=Someday My Prince Will Come
TTITLE1=Inexistente
TTITLE2=Moon River
TTITLE3=Concepção
TTITLE4=Saudades do Brasil
TTITLE5=Pro Mileto
TTITLE6=Bolero
EXTD=YEAR: 2005
EXTT0=
EXTT1=
EXTT2=
EXTT3=
EXTT4=
EXTT5=
EXTT6=
PLAYORDER=
